<svg width="24" height="24" viewBox="0 0 24 24" fill="none" xmlns="http://www.w3.org/2000/svg">
<path d="M19.7251 0C18.2764 0 16.9344 0.616 16.1373 1.649C15.0841 3.019 15.1346 4.91 14.5312 6.093C13.6612 7.801 9.98409 6.436 8.03634 5.569C4.62104 11.216 2.13676 13.78 0 16.017C7.72405 20.335 2.14029 17.21 14.3116 24C16.7478 20.009 19.3999 16.633 22.3245 13.54C20.5176 12.299 17.606 9.994 19.2555 8.595C20.4296 7.595 22.2435 7.017 23.2966 5.645C25.1622 3.219 23.0923 0 19.7251 0V0ZM13.4463 21.138L12.0363 20.375C12.0363 19.719 12.2206 19.077 12.5318 18.501C11.8168 18.703 11.2708 18.983 10.6322 19.544L6.69324 17.313C7.31666 16.61 7.78979 15.763 7.70174 14.625C7.13585 15.449 5.91602 16.246 4.96504 16.37L3.43643 15.555C4.77015 14.088 6.06747 12.469 7.2603 10.827L17.0037 16.289C15.7134 17.903 14.4243 19.652 13.4463 21.138ZM21.3406 4.554C20.8041 5.254 18.4701 6.448 17.6025 7.186C16.8029 7.866 16.412 8.747 16.4742 9.734C16.5576 11.088 17.4745 12.515 19.0782 13.819C18.8423 14.084 18.5992 14.362 18.3527 14.652L8.45783 9.104L9.04955 8.221C10.2999 8.666 11.515 8.899 12.6093 8.899C14.5417 8.899 16.0234 8.166 16.6761 6.887C17.215 5.829 17.5579 3.439 18.092 2.742C19.5079 0.909 22.746 2.725 21.3406 4.554ZM20.5846 4.13C20.2734 4.54 19.63 4.653 19.1522 4.387C18.672 4.12 18.5394 3.573 18.8528 3.164C19.1663 2.755 19.8073 2.64 20.2875 2.907C20.7665 3.173 20.8992 3.724 20.5846 4.13Z" fill="black"/>
</svg>
